<svg width="256" height="256" viewBox="0 0 256 256" fill="none" stroke="#fff" stroke-width="15" stroke-linecap="round" stroke-linejoin="round" xmlns="http://www.w3.org/2000/svg">
  <rect width="256" height="256" rx="60" fill="#0f172a" stroke="none" />
  <g transform="scale(9.846) translate(0, 0)">
    <path d="M13 9.5 C 18 9.5, 21.5 13, 21.5 18" stroke="#cbd5e1" opacity="0.8" stroke-width="1.5" />
    <path d="M13 16.5 C 8 16.5, 4.5 13, 4.5 8" stroke="#cbd5e1" opacity="0.8" stroke-width="1.5" />
    <path d="M16.5 13 C 16.5 18, 13 21.5, 8 21.5" stroke="#cbd5e1" opacity="0.8" stroke-width="1.5" />
    <path d="M9.5 13 C 9.5 8, 13 4.5, 18 4.5" stroke="#cbd5e1" opacity="0.8" stroke-width="1.5" />
    <circle cx="13" cy="13" r="3" fill="#fff" stroke="none" opacity="0.95" />
    <circle cx="13" cy="13" r="5" stroke="#fff" stroke-dasharray="1 3" opacity="0.6" stroke-width="1.5" />
    <circle cx="19.5" cy="16.5" r="1.5" fill="#fff" stroke="none" opacity="0.9" />
    <circle cx="6.5" cy="9.5" r="1.5" fill="#fff" stroke="none" opacity="0.9" />
    <circle cx="9.5" cy="19.5" r="1.5" fill="#fff" stroke="none" opacity="0.9" />
    <circle cx="16.5" cy="6.5" r="1.5" fill="#fff" stroke="none" opacity="0.9" />
    <circle cx="22" cy="7" r="1" fill="#fff" stroke="none" opacity="0.6" />
    <circle cx="4" cy="19" r="1" fill="#fff" stroke="none" opacity="0.6" />
    <circle cx="20" cy="21" r="0.6" fill="#fff" stroke="none" opacity="0.5" />
    <circle cx="6" cy="5" r="0.6" fill="#fff" stroke="none" opacity="0.5" />
  </g>
</svg>
